<svg width="25" height="26" viewBox="0 0 25 26" fill="none" xmlns="http://www.w3.org/2000/svg">
    <path d="M12.502 22.794c-2.562 0-2.865-.014-3.865-.06a6.63 6.63 0 0 1-2.276-.487c-1.257-.508-2.25-1.543-2.74-2.85a7.392 7.392 0 0 1-.436-2.37c-.058-1.037-.058-1.377-.058-4.022 0-2.672.014-2.984.058-4.019a7.391 7.391 0 0 1 .437-2.366C4.11 5.311 5.106 4.276 6.365 3.77a6.576 6.576 0 0 1 2.275-.455c.994-.059 1.321-.059 3.862-.059 2.583 0 2.88.014 3.865.059.78.015 1.551.17 2.28.455 1.26.508 2.255 1.542 2.744 2.851.278.768.426 1.581.438 2.402.058 1.038.058 1.377.058 4.02s-.014 2.99-.058 4.016a7.403 7.403 0 0 1-.437 2.372c-.49 1.308-1.486 2.342-2.744 2.85a6.656 6.656 0 0 1-2.277.455c-.995.06-1.321.06-3.869.06zM12.467 4.97c-2.548 0-2.813.013-3.808.06a5.02 5.02 0 0 0-1.738.337A3.178 3.178 0 0 0 5.13 7.22a5.626 5.626 0 0 0-.325 1.828c-.055 1.05-.055 1.325-.055 3.956 0 2.6.01 2.916.055 3.959.01.618.12 1.23.324 1.809a3.18 3.18 0 0 0 1.79 1.854c.557.216 1.145.33 1.74.337 1.008.06 1.273.06 3.807.06 2.555 0 2.82-.013 3.806-.06a4.995 4.995 0 0 0 1.74-.337 3.19 3.19 0 0 0 1.78-1.852 5.654 5.654 0 0 0 .325-1.828h.011c.045-1.036.045-1.312.045-3.959 0-2.646-.011-2.925-.056-3.96a5.67 5.67 0 0 0-.324-1.807 3.19 3.19 0 0 0-1.782-1.854 4.974 4.974 0 0 0-1.74-.337c-1.006-.06-1.27-.06-3.805-.06zm.035 13.04c-1.948 0-3.705-1.219-4.451-3.09-.747-1.871-.335-4.026 1.041-5.459C10.47 8.028 12.54 7.6 14.34 8.373c1.8.775 2.974 2.601 2.975 4.627-.003 2.764-2.156 5.004-4.813 5.01zm0-8.262c-1.726 0-3.125 1.455-3.125 3.25s1.4 3.25 3.125 3.25c1.726 0 3.125-1.455 3.125-3.25-.004-1.793-1.4-3.246-3.125-3.25zm5-.773c-.62-.002-1.12-.525-1.119-1.17.002-.644.504-1.165 1.123-1.165.62 0 1.122.521 1.123 1.165 0 .311-.118.61-.33.829-.211.22-.498.342-.797.341z" fill="#fff"/>
</svg>
