<svg width="24" height="26" viewBox="0 0 24 26" fill="none" xmlns="http://www.w3.org/2000/svg">
    <path d="M19.995 7.245c.896-.58 1.567-1.495 1.887-2.572a8.202 8.202 0 0 1-2.725 1.128c-1.332-1.527-3.444-1.898-5.154-.907-1.71.991-2.595 3.1-2.162 5.148-3.45-.187-6.665-1.953-8.844-4.857-1.137 2.125-.556 4.84 1.328 6.207a4.028 4.028 0 0 1-1.943-.583v.059c0 2.213 1.44 4.12 3.443 4.559a3.98 3.98 0 0 1-1.938.08c.563 1.893 2.174 3.19 4.009 3.228-1.52 1.293-3.398 1.994-5.33 1.99a8.06 8.06 0 0 1-1.025-.064c1.962 1.366 4.246 2.091 6.579 2.089 3.245.024 6.364-1.362 8.659-3.848 2.294-2.486 3.574-5.865 3.551-9.38 0-.202-.004-.403-.013-.602a9.157 9.157 0 0 0 2.142-2.407 8.07 8.07 0 0 1-2.464.732z" fill="#fff"/>
</svg>
